%TF.GenerationSoftware,KiCad,Pcbnew,(6.0.5)*%
%TF.CreationDate,2022-08-13T18:51:57-04:00*%
%TF.ProjectId,Keypad_2Sides,4b657970-6164-45f3-9253-696465732e6b,rev?*%
%TF.SameCoordinates,Original*%
%TF.FileFunction,Copper,L2,Bot*%
%TF.FilePolarity,Positive*%
%FSLAX46Y46*%
G04 Gerber Fmt 4.6, Leading zero omitted, Abs format (unit mm)*
G04 Created by KiCad (PCBNEW (6.0.5)) date 2022-08-13 18:51:57*
%MOMM*%
%LPD*%
G01*
G04 APERTURE LIST*
%TA.AperFunction,ComponentPad*%
%ADD10C,2.200000*%
%TD*%
%TA.AperFunction,ComponentPad*%
%ADD11R,1.600000X1.600000*%
%TD*%
%TA.AperFunction,ComponentPad*%
%ADD12C,1.600000*%
%TD*%
%TA.AperFunction,ComponentPad*%
%ADD13O,1.600000X1.600000*%
%TD*%
%TA.AperFunction,ComponentPad*%
%ADD14C,1.400000*%
%TD*%
%TA.AperFunction,ComponentPad*%
%ADD15O,1.400000X1.400000*%
%TD*%
%TA.AperFunction,ComponentPad*%
%ADD16R,1.700000X1.700000*%
%TD*%
%TA.AperFunction,ComponentPad*%
%ADD17O,1.700000X1.700000*%
%TD*%
%TA.AperFunction,ComponentPad*%
%ADD18R,1.498600X1.498600*%
%TD*%
%TA.AperFunction,ComponentPad*%
%ADD19C,1.498600*%
%TD*%
%TA.AperFunction,ViaPad*%
%ADD20C,2.000000*%
%TD*%
%TA.AperFunction,Conductor*%
%ADD21C,1.000000*%
%TD*%
G04 APERTURE END LIST*
D10*
%TO.P,Col0_Row3,1,1*%
%TO.N,Net-(Col0_Row3-Pad1)*%
X26990000Y-125070000D03*
%TO.P,Col0_Row3,2,2*%
%TO.N,Col_0*%
X20640000Y-127610000D03*
%TD*%
%TO.P,Col2_Row1,1,1*%
%TO.N,Net-(Col2_Row1-Pad1)*%
X65090000Y-86970000D03*
%TO.P,Col2_Row1,2,2*%
%TO.N,Col_2*%
X58740000Y-89510000D03*
%TD*%
D11*
%TO.P,C3,1*%
%TO.N,Row_2*%
X75005302Y-111100000D03*
D12*
%TO.P,C3,2*%
%TO.N,GND*%
X75005302Y-107300000D03*
%TD*%
D11*
%TO.P,D9,1,K*%
%TO.N,Row_0*%
X54650000Y-75080000D03*
D13*
%TO.P,D9,2,A*%
%TO.N,Net-(Col2_Row0-Pad1)*%
X54650000Y-67460000D03*
%TD*%
D10*
%TO.P,Col0_Row2,1,1*%
%TO.N,Net-(Col0_Row2-Pad1)*%
X26990040Y-106020000D03*
%TO.P,Col0_Row2,2,2*%
%TO.N,Col_0*%
X20640040Y-108560000D03*
%TD*%
D11*
%TO.P,D1,1,K*%
%TO.N,Row_0*%
X16550000Y-75080000D03*
D13*
%TO.P,D1,2,A*%
%TO.N,Net-(Col0_Row0-Pad1)*%
X16550000Y-67460000D03*
%TD*%
D10*
%TO.P,Col0_Row1,1,1*%
%TO.N,Net-(Col0_Row1-Pad1)*%
X26990000Y-86970000D03*
%TO.P,Col0_Row1,2,2*%
%TO.N,Col_0*%
X20640000Y-89510000D03*
%TD*%
D14*
%TO.P,R2,1*%
%TO.N,VCC*%
X67140000Y-45700000D03*
D15*
%TO.P,R2,2*%
%TO.N,SCL*%
X74760000Y-45700000D03*
%TD*%
D11*
%TO.P,D2,1,K*%
%TO.N,Row_1*%
X16550000Y-94180000D03*
D13*
%TO.P,D2,2,A*%
%TO.N,Net-(Col0_Row1-Pad1)*%
X16550000Y-86560000D03*
%TD*%
D11*
%TO.P,D12,1,K*%
%TO.N,Row_3*%
X54650000Y-132280000D03*
D13*
%TO.P,D12,2,A*%
%TO.N,Net-(Col2_Row3-Pad1)*%
X54650000Y-124660000D03*
%TD*%
D10*
%TO.P,Col1_Row2,1,1*%
%TO.N,Net-(Col1_Row2-Pad1)*%
X46040000Y-106020000D03*
%TO.P,Col1_Row2,2,2*%
%TO.N,Col_1*%
X39690000Y-108560000D03*
%TD*%
D11*
%TO.P,D6,1,K*%
%TO.N,Row_1*%
X35550000Y-94180000D03*
D13*
%TO.P,D6,2,A*%
%TO.N,Net-(Col1_Row1-Pad1)*%
X35550000Y-86560000D03*
%TD*%
D16*
%TO.P,LED_Header1,1,Pin_1*%
%TO.N,GND*%
X22740000Y-60600000D03*
D17*
%TO.P,LED_Header1,2,Pin_2*%
%TO.N,Net-(LED_Header1-Pad2)*%
X20200000Y-60600000D03*
%TO.P,LED_Header1,3,Pin_3*%
%TO.N,Net-(LED_Header1-Pad3)*%
X17660000Y-60600000D03*
%TD*%
D11*
%TO.P,C2,1*%
%TO.N,Row_1*%
X75005302Y-92050000D03*
D12*
%TO.P,C2,2*%
%TO.N,GND*%
X75005302Y-88250000D03*
%TD*%
D11*
%TO.P,D4,1,K*%
%TO.N,Row_3*%
X16550000Y-132280000D03*
D13*
%TO.P,D4,2,A*%
%TO.N,Net-(Col0_Row3-Pad1)*%
X16550000Y-124660000D03*
%TD*%
D10*
%TO.P,Col1_Row3,1,1*%
%TO.N,Net-(Col1_Row3-Pad1)*%
X46040000Y-125070000D03*
%TO.P,Col1_Row3,2,2*%
%TO.N,Col_1*%
X39690000Y-127610000D03*
%TD*%
D11*
%TO.P,D8,1,K*%
%TO.N,Row_3*%
X35550000Y-132280000D03*
D13*
%TO.P,D8,2,A*%
%TO.N,Net-(Col1_Row3-Pad1)*%
X35550000Y-124660000D03*
%TD*%
D10*
%TO.P,Col0_Row0,1,1*%
%TO.N,Net-(Col0_Row0-Pad1)*%
X26990000Y-67920000D03*
%TO.P,Col0_Row0,2,2*%
%TO.N,Col_0*%
X20640000Y-70460000D03*
%TD*%
D16*
%TO.P,USER_BTN1,1,1*%
%TO.N,GND*%
X21000000Y-40300000D03*
D17*
%TO.P,USER_BTN1,2,2*%
%TO.N,Net-(MCU1-Pad4)*%
X23540000Y-40300000D03*
%TD*%
D10*
%TO.P,Col2_Row0,1,1*%
%TO.N,Net-(Col2_Row0-Pad1)*%
X65090000Y-67920000D03*
%TO.P,Col2_Row0,2,2*%
%TO.N,Col_2*%
X58740000Y-70460000D03*
%TD*%
D18*
%TO.P,Memory1,1,NC*%
%TO.N,unconnected-(Memory1-Pad1)*%
X28300000Y-53662180D03*
D19*
%TO.P,Memory1,2,NC*%
%TO.N,unconnected-(Memory1-Pad2)*%
X28300000Y-51122180D03*
%TO.P,Memory1,3,NC*%
%TO.N,unconnected-(Memory1-Pad3)*%
X28300000Y-48582180D03*
%TO.P,Memory1,4,VSS*%
%TO.N,GND*%
X28300000Y-46042180D03*
%TO.P,Memory1,5,SDA*%
%TO.N,SDA*%
X20680000Y-46042180D03*
%TO.P,Memory1,6,SCL*%
%TO.N,SCL*%
X20680000Y-48582180D03*
%TO.P,Memory1,7,WP*%
%TO.N,GND*%
X20680000Y-51122180D03*
%TO.P,Memory1,8,VCC*%
%TO.N,VCC*%
X20680000Y-53662180D03*
%TD*%
D11*
%TO.P,C4,1*%
%TO.N,Row_3*%
X75005302Y-130150000D03*
D12*
%TO.P,C4,2*%
%TO.N,GND*%
X75005302Y-126350000D03*
%TD*%
D14*
%TO.P,R1,1*%
%TO.N,VCC*%
X67140000Y-42500000D03*
D15*
%TO.P,R1,2*%
%TO.N,SDA*%
X74760000Y-42500000D03*
%TD*%
D10*
%TO.P,Col1_Row0,1,1*%
%TO.N,Net-(Col1_Row0-Pad1)*%
X46040000Y-67920000D03*
%TO.P,Col1_Row0,2,2*%
%TO.N,Col_1*%
X39690000Y-70460000D03*
%TD*%
D11*
%TO.P,C1,1*%
%TO.N,Row_0*%
X75005302Y-73000000D03*
D12*
%TO.P,C1,2*%
%TO.N,GND*%
X75005302Y-69200000D03*
%TD*%
D11*
%TO.P,D5,1,K*%
%TO.N,Row_0*%
X35550000Y-75080000D03*
D13*
%TO.P,D5,2,A*%
%TO.N,Net-(Col1_Row0-Pad1)*%
X35550000Y-67460000D03*
%TD*%
D11*
%TO.P,D7,1,K*%
%TO.N,Row_2*%
X35550000Y-113180000D03*
D13*
%TO.P,D7,2,A*%
%TO.N,Net-(Col1_Row2-Pad1)*%
X35550000Y-105560000D03*
%TD*%
D10*
%TO.P,Col2_Row2,1,1*%
%TO.N,Net-(Col2_Row2-Pad1)*%
X65089960Y-106020000D03*
%TO.P,Col2_Row2,2,2*%
%TO.N,Col_2*%
X58739960Y-108560000D03*
%TD*%
%TO.P,Col1_Row1,1,1*%
%TO.N,Net-(Col1_Row1-Pad1)*%
X46040032Y-86970000D03*
%TO.P,Col1_Row1,2,2*%
%TO.N,Col_1*%
X39690032Y-89510000D03*
%TD*%
%TO.P,Col2_Row3,1,1*%
%TO.N,Net-(Col2_Row3-Pad1)*%
X65090000Y-125070000D03*
%TO.P,Col2_Row3,2,2*%
%TO.N,Col_2*%
X58740000Y-127610000D03*
%TD*%
D11*
%TO.P,D11,1,K*%
%TO.N,Row_2*%
X54650000Y-113180000D03*
D13*
%TO.P,D11,2,A*%
%TO.N,Net-(Col2_Row2-Pad1)*%
X54650000Y-105560000D03*
%TD*%
D11*
%TO.P,D3,1,K*%
%TO.N,Row_2*%
X16550000Y-113180000D03*
D13*
%TO.P,D3,2,A*%
%TO.N,Net-(Col0_Row2-Pad1)*%
X16550000Y-105560000D03*
%TD*%
D11*
%TO.P,D10,1,K*%
%TO.N,Row_1*%
X54650000Y-94180000D03*
D13*
%TO.P,D10,2,A*%
%TO.N,Net-(Col2_Row1-Pad1)*%
X54650000Y-86560000D03*
%TD*%
D16*
%TO.P,OLED_Header1,1,Pin_1*%
%TO.N,GND*%
X64600000Y-38422180D03*
D17*
%TO.P,OLED_Header1,2,Pin_2*%
%TO.N,VCC*%
X67140000Y-38422180D03*
%TO.P,OLED_Header1,3,Pin_3*%
%TO.N,SCL*%
X69680000Y-38422180D03*
%TO.P,OLED_Header1,4,Pin_4*%
%TO.N,SDA*%
X72220000Y-38422180D03*
%TD*%
D20*
%TO.N,Col_0*%
X28990000Y-60600000D03*
%TO.N,Col_1*%
X46040000Y-60600000D03*
%TO.N,Col_2*%
X65090000Y-60600000D03*
%TO.N,Net-(LED_Header1-Pad3)*%
X56300000Y-35882180D03*
%TD*%
D21*
%TO.N,GND*%
X75005302Y-126350000D02*
X73205791Y-124550489D01*
X75005302Y-69200000D02*
X75005302Y-49978799D01*
X56980000Y-46042180D02*
X64600000Y-38422180D01*
X73205791Y-109099511D02*
X75005302Y-107300000D01*
X75005302Y-88250000D02*
X73205791Y-86450489D01*
X78000000Y-46984101D02*
X78000000Y-41586575D01*
X78000000Y-41586575D02*
X72986094Y-36572669D01*
X26442180Y-46042180D02*
X28300000Y-46042180D01*
X73205791Y-86450489D02*
X73205791Y-70999511D01*
X73205791Y-70999511D02*
X75005302Y-69200000D01*
X73205791Y-124550489D02*
X73205791Y-109099511D01*
X73205791Y-90049511D02*
X75005302Y-88250000D01*
X72986094Y-36572669D02*
X66373906Y-36572669D01*
X21000000Y-40600000D02*
X26442180Y-46042180D01*
X75005302Y-49978799D02*
X78000000Y-46984101D01*
X21000000Y-40300000D02*
X21000000Y-40600000D01*
X64600000Y-38346575D02*
X64600000Y-38422180D01*
X28300000Y-46042180D02*
X56980000Y-46042180D01*
X73205791Y-105500489D02*
X73205791Y-90049511D01*
X75005302Y-107300000D02*
X73205791Y-105500489D01*
X66373906Y-36572669D02*
X64600000Y-38346575D01*
%TO.N,Net-(Col0_Row0-Pad1)*%
X16550000Y-67350000D02*
X26530000Y-67350000D01*
X26530000Y-67350000D02*
X26990000Y-67810000D01*
%TO.N,Col_0*%
X27859647Y-70019511D02*
X29089511Y-68789647D01*
X29089511Y-60699511D02*
X28990000Y-60600000D01*
X17570978Y-108560000D02*
X20640040Y-108560000D01*
X14750489Y-92380489D02*
X14750489Y-106305383D01*
X14750489Y-87305383D02*
X14750489Y-73280489D01*
X20640000Y-70460000D02*
X21739999Y-69360001D01*
X14750489Y-106305383D02*
X17005106Y-108560000D01*
X29089511Y-68789647D02*
X29089511Y-60699511D01*
X16955106Y-89510000D02*
X14750489Y-87305383D01*
X16800000Y-127500000D02*
X14750489Y-125450489D01*
X25460001Y-69360001D02*
X26119511Y-70019511D01*
X17005106Y-108560000D02*
X17570978Y-108560000D01*
X17620978Y-89510000D02*
X14750489Y-92380489D01*
X14750489Y-125450489D02*
X14750489Y-111380489D01*
X21739999Y-69360001D02*
X25460001Y-69360001D01*
X20640000Y-127500000D02*
X16800000Y-127500000D01*
X26119511Y-70019511D02*
X27859647Y-70019511D01*
X14750489Y-111380489D02*
X17570978Y-108560000D01*
X17570978Y-70460000D02*
X20640000Y-70460000D01*
X17620978Y-89510000D02*
X20640000Y-89510000D01*
X14750489Y-73280489D02*
X17570978Y-70460000D01*
X17620978Y-89510000D02*
X16955106Y-89510000D01*
%TO.N,Net-(Col0_Row1-Pad1)*%
X16960000Y-86860000D02*
X16550000Y-86450000D01*
X26990000Y-86860000D02*
X16960000Y-86860000D01*
%TO.N,Net-(Col0_Row2-Pad1)*%
X17010000Y-105910000D02*
X16550000Y-105450000D01*
X26990040Y-105910000D02*
X17010000Y-105910000D01*
%TO.N,Net-(Col0_Row3-Pad1)*%
X16960000Y-124960000D02*
X16550000Y-124550000D01*
X26990000Y-124960000D02*
X16960000Y-124960000D01*
%TO.N,Net-(Col1_Row0-Pad1)*%
X35550000Y-67350000D02*
X45580000Y-67350000D01*
X45580000Y-67350000D02*
X46040000Y-67810000D01*
%TO.N,Col_1*%
X36570978Y-70460000D02*
X39690000Y-70460000D01*
X40789999Y-69360001D02*
X44460001Y-69360001D01*
X36620978Y-89510000D02*
X35955106Y-89510000D01*
X33750489Y-92380489D02*
X33750489Y-106305383D01*
X48139511Y-68789647D02*
X48139511Y-62699511D01*
X48139511Y-62699511D02*
X46040000Y-60600000D01*
X33750489Y-87305383D02*
X33750489Y-73280489D01*
X36005106Y-108560000D02*
X36570978Y-108560000D01*
X35800000Y-127500000D02*
X33750489Y-125450489D01*
X33750489Y-111380489D02*
X36570978Y-108560000D01*
X33750489Y-125450489D02*
X33750489Y-111380489D01*
X36620978Y-89510000D02*
X33750489Y-92380489D01*
X39690000Y-127500000D02*
X35800000Y-127500000D01*
X44460001Y-69360001D02*
X45119511Y-70019511D01*
X33750489Y-73280489D02*
X36570978Y-70460000D01*
X36570978Y-108560000D02*
X39690000Y-108560000D01*
X33750489Y-106305383D02*
X36005106Y-108560000D01*
X35955106Y-89510000D02*
X33750489Y-87305383D01*
X39690000Y-70460000D02*
X40789999Y-69360001D01*
X45119511Y-70019511D02*
X46909647Y-70019511D01*
X36620978Y-89510000D02*
X39690032Y-89510000D01*
X46909647Y-70019511D02*
X48139511Y-68789647D01*
%TO.N,Net-(Col1_Row1-Pad1)*%
X35960000Y-86860000D02*
X35550000Y-86450000D01*
X46040032Y-86860000D02*
X35960000Y-86860000D01*
%TO.N,Net-(Col1_Row2-Pad1)*%
X36010000Y-105910000D02*
X35550000Y-105450000D01*
X46040000Y-105910000D02*
X36010000Y-105910000D01*
%TO.N,Net-(Col1_Row3-Pad1)*%
X35960000Y-124960000D02*
X35550000Y-124550000D01*
X46040000Y-124960000D02*
X35960000Y-124960000D01*
%TO.N,Net-(Col2_Row0-Pad1)*%
X64630000Y-67350000D02*
X65090000Y-67810000D01*
X54650000Y-67350000D02*
X64630000Y-67350000D01*
%TO.N,Col_2*%
X55670978Y-108560000D02*
X58739960Y-108560000D01*
X58740000Y-70460000D02*
X59839999Y-69360001D01*
X58740000Y-127500000D02*
X54877553Y-127500000D01*
X55670978Y-70460000D02*
X52850489Y-73280489D01*
X64220353Y-70019511D02*
X65959647Y-70019511D01*
X65959647Y-70019511D02*
X67189511Y-68789647D01*
X58740000Y-70460000D02*
X55670978Y-70460000D01*
X55720978Y-89510000D02*
X58740000Y-89510000D01*
X52850489Y-111380489D02*
X55670978Y-108560000D01*
X67189511Y-62699511D02*
X65090000Y-60600000D01*
X52850489Y-106305383D02*
X55105106Y-108560000D01*
X55720978Y-89510000D02*
X52850489Y-92380489D01*
X59839999Y-69360001D02*
X63560843Y-69360001D01*
X54877553Y-127500000D02*
X52850489Y-125472936D01*
X55720978Y-89510000D02*
X55055106Y-89510000D01*
X52850489Y-125472936D02*
X52850489Y-111380489D01*
X52850489Y-87305383D02*
X52850489Y-73280489D01*
X67189511Y-68789647D02*
X67189511Y-62699511D01*
X63560843Y-69360001D02*
X64220353Y-70019511D01*
X52850489Y-92380489D02*
X52850489Y-106305383D01*
X55105106Y-108560000D02*
X55670978Y-108560000D01*
X55055106Y-89510000D02*
X52850489Y-87305383D01*
%TO.N,Net-(Col2_Row1-Pad1)*%
X55060000Y-86860000D02*
X54650000Y-86450000D01*
X65090000Y-86860000D02*
X55060000Y-86860000D01*
%TO.N,Net-(Col2_Row2-Pad1)*%
X65089960Y-105910000D02*
X55110000Y-105910000D01*
X55110000Y-105910000D02*
X54650000Y-105450000D01*
%TO.N,Net-(Col2_Row3-Pad1)*%
X65090000Y-124960000D02*
X55060000Y-124960000D01*
X55060000Y-124960000D02*
X54650000Y-124550000D01*
%TO.N,VCC*%
X57429009Y-55410991D02*
X67140000Y-45700000D01*
X20680000Y-53662180D02*
X22428811Y-55410991D01*
X22428811Y-55410991D02*
X57429009Y-55410991D01*
%TO.N,SCL*%
X18931189Y-54386562D02*
X18931189Y-50330991D01*
X63360000Y-57100000D02*
X21644627Y-57100000D01*
X74760000Y-45700000D02*
X63360000Y-57100000D01*
X21644627Y-57100000D02*
X18931189Y-54386562D01*
X18931189Y-50330991D02*
X20680000Y-48582180D01*
%TO.N,SDA*%
X76459511Y-44199511D02*
X76459511Y-46403962D01*
X21023495Y-58599510D02*
X17431669Y-55007684D01*
X74760000Y-42500000D02*
X76459511Y-44199511D01*
X76459511Y-46403962D02*
X64263963Y-58599510D01*
X64263963Y-58599510D02*
X21023495Y-58599510D01*
X17431669Y-55007684D02*
X17431669Y-49290511D01*
X17431669Y-49290511D02*
X20680000Y-46042180D01*
%TO.N,Net-(LED_Header1-Pad3)*%
X15800000Y-39800000D02*
X15800000Y-58740000D01*
X19717820Y-35882180D02*
X15800000Y-39800000D01*
X15800000Y-58740000D02*
X17660000Y-60600000D01*
X56300000Y-35882180D02*
X19717820Y-35882180D01*
%TD*%
M02*
