%TF.GenerationSoftware,KiCad,Pcbnew,(6.0.5)*%
%TF.CreationDate,2022-08-13T18:51:57-04:00*%
%TF.ProjectId,Keypad_2Sides,4b657970-6164-45f3-9253-696465732e6b,rev?*%
%TF.SameCoordinates,Original*%
%TF.FileFunction,Copper,L1,Top*%
%TF.FilePolarity,Positive*%
%FSLAX46Y46*%
G04 Gerber Fmt 4.6, Leading zero omitted, Abs format (unit mm)*
G04 Created by KiCad (PCBNEW (6.0.5)) date 2022-08-13 18:51:57*
%MOMM*%
%LPD*%
G01*
G04 APERTURE LIST*
%TA.AperFunction,ComponentPad*%
%ADD10C,2.200000*%
%TD*%
%TA.AperFunction,SMDPad,CuDef*%
%ADD11O,2.748280X1.998980*%
%TD*%
%TA.AperFunction,SMDPad,CuDef*%
%ADD12O,1.016000X2.032000*%
%TD*%
%TA.AperFunction,SMDPad,CuDef*%
%ADD13C,1.143000*%
%TD*%
%TA.AperFunction,ComponentPad*%
%ADD14R,1.600000X1.600000*%
%TD*%
%TA.AperFunction,ComponentPad*%
%ADD15C,1.600000*%
%TD*%
%TA.AperFunction,ComponentPad*%
%ADD16O,1.600000X1.600000*%
%TD*%
%TA.AperFunction,ComponentPad*%
%ADD17C,1.400000*%
%TD*%
%TA.AperFunction,ComponentPad*%
%ADD18O,1.400000X1.400000*%
%TD*%
%TA.AperFunction,ComponentPad*%
%ADD19R,1.700000X1.700000*%
%TD*%
%TA.AperFunction,ComponentPad*%
%ADD20O,1.700000X1.700000*%
%TD*%
%TA.AperFunction,ComponentPad*%
%ADD21R,1.498600X1.498600*%
%TD*%
%TA.AperFunction,ComponentPad*%
%ADD22C,1.498600*%
%TD*%
%TA.AperFunction,ViaPad*%
%ADD23C,2.000000*%
%TD*%
%TA.AperFunction,Conductor*%
%ADD24C,1.000000*%
%TD*%
G04 APERTURE END LIST*
D10*
%TO.P,Col0_Row3,1,1*%
%TO.N,Net-(Col0_Row3-Pad1)*%
X26990000Y-125070000D03*
%TO.P,Col0_Row3,2,2*%
%TO.N,Col_0*%
X20640000Y-127610000D03*
%TD*%
%TO.P,Col2_Row1,1,1*%
%TO.N,Net-(Col2_Row1-Pad1)*%
X65090000Y-86970000D03*
%TO.P,Col2_Row1,2,2*%
%TO.N,Col_2*%
X58740000Y-89510000D03*
%TD*%
D11*
%TO.P,MCU1,1,PA02_A0_D0*%
%TO.N,Col_2*%
X35434230Y-35882180D03*
%TO.P,MCU1,2,PA4_A1_D1*%
%TO.N,Col_1*%
X35434230Y-38422180D03*
%TO.P,MCU1,3,PA10_A2_D2*%
%TO.N,Col_0*%
X35434230Y-40962180D03*
%TO.P,MCU1,4,PA11_A3_D3*%
%TO.N,Net-(MCU1-Pad4)*%
X35434230Y-43502180D03*
%TO.P,MCU1,5,PA8_A4_D4_SDA*%
%TO.N,SDA*%
X35434230Y-46042180D03*
%TO.P,MCU1,6,PA9_A5_D5_SCL*%
%TO.N,SCL*%
X35434230Y-48582180D03*
%TO.P,MCU1,7,PB08_A6_D6_TX*%
%TO.N,Net-(LED_Header1-Pad2)*%
X35434230Y-51122180D03*
%TO.P,MCU1,8,PB09_A7_D7_RX*%
%TO.N,Row_0*%
X51598790Y-51122180D03*
%TO.P,MCU1,9,PA7_A8_D8_SCK*%
%TO.N,Row_1*%
X51598790Y-48582180D03*
%TO.P,MCU1,10,PA5_A9_D9_MISO*%
%TO.N,Row_2*%
X51598790Y-46042180D03*
%TO.P,MCU1,11,PA6_A10_D10_MOSI*%
%TO.N,Row_3*%
X51598790Y-43502180D03*
%TO.P,MCU1,12,3V3*%
%TO.N,VCC*%
X51598790Y-40962180D03*
%TO.P,MCU1,13,GND*%
%TO.N,GND*%
X51598790Y-38422180D03*
%TO.P,MCU1,14,5V*%
%TO.N,Net-(LED_Header1-Pad3)*%
X51598790Y-35882180D03*
D12*
%TO.P,MCU1,15,5V*%
%TO.N,unconnected-(MCU1-Pad15)*%
X42301110Y-52200000D03*
%TO.P,MCU1,16,GND*%
%TO.N,unconnected-(MCU1-Pad16)*%
X44851110Y-52200000D03*
D13*
%TO.P,MCU1,17,PA31_SWDIO*%
%TO.N,unconnected-(MCU1-Pad17)*%
X42299913Y-35195813D03*
%TO.P,MCU1,18,PA30_SWCLK*%
%TO.N,unconnected-(MCU1-Pad18)*%
X44839913Y-35195813D03*
%TO.P,MCU1,19,RESET*%
%TO.N,unconnected-(MCU1-Pad19)*%
X42299913Y-37735813D03*
%TO.P,MCU1,20,GND*%
%TO.N,unconnected-(MCU1-Pad20)*%
X44839913Y-37735813D03*
%TD*%
D14*
%TO.P,C3,1*%
%TO.N,Row_2*%
X75005302Y-111100000D03*
D15*
%TO.P,C3,2*%
%TO.N,GND*%
X75005302Y-107300000D03*
%TD*%
D14*
%TO.P,D9,1,K*%
%TO.N,Row_0*%
X54650000Y-75080000D03*
D16*
%TO.P,D9,2,A*%
%TO.N,Net-(Col2_Row0-Pad1)*%
X54650000Y-67460000D03*
%TD*%
D10*
%TO.P,Col0_Row2,1,1*%
%TO.N,Net-(Col0_Row2-Pad1)*%
X26990040Y-106020000D03*
%TO.P,Col0_Row2,2,2*%
%TO.N,Col_0*%
X20640040Y-108560000D03*
%TD*%
D14*
%TO.P,D1,1,K*%
%TO.N,Row_0*%
X16550000Y-75080000D03*
D16*
%TO.P,D1,2,A*%
%TO.N,Net-(Col0_Row0-Pad1)*%
X16550000Y-67460000D03*
%TD*%
D10*
%TO.P,Col0_Row1,1,1*%
%TO.N,Net-(Col0_Row1-Pad1)*%
X26990000Y-86970000D03*
%TO.P,Col0_Row1,2,2*%
%TO.N,Col_0*%
X20640000Y-89510000D03*
%TD*%
D17*
%TO.P,R2,1*%
%TO.N,VCC*%
X67140000Y-45700000D03*
D18*
%TO.P,R2,2*%
%TO.N,SCL*%
X74760000Y-45700000D03*
%TD*%
D14*
%TO.P,D2,1,K*%
%TO.N,Row_1*%
X16550000Y-94180000D03*
D16*
%TO.P,D2,2,A*%
%TO.N,Net-(Col0_Row1-Pad1)*%
X16550000Y-86560000D03*
%TD*%
D14*
%TO.P,D12,1,K*%
%TO.N,Row_3*%
X54650000Y-132280000D03*
D16*
%TO.P,D12,2,A*%
%TO.N,Net-(Col2_Row3-Pad1)*%
X54650000Y-124660000D03*
%TD*%
D10*
%TO.P,Col1_Row2,1,1*%
%TO.N,Net-(Col1_Row2-Pad1)*%
X46040000Y-106020000D03*
%TO.P,Col1_Row2,2,2*%
%TO.N,Col_1*%
X39690000Y-108560000D03*
%TD*%
D14*
%TO.P,D6,1,K*%
%TO.N,Row_1*%
X35550000Y-94180000D03*
D16*
%TO.P,D6,2,A*%
%TO.N,Net-(Col1_Row1-Pad1)*%
X35550000Y-86560000D03*
%TD*%
D19*
%TO.P,LED_Header1,1,Pin_1*%
%TO.N,GND*%
X22740000Y-60600000D03*
D20*
%TO.P,LED_Header1,2,Pin_2*%
%TO.N,Net-(LED_Header1-Pad2)*%
X20200000Y-60600000D03*
%TO.P,LED_Header1,3,Pin_3*%
%TO.N,Net-(LED_Header1-Pad3)*%
X17660000Y-60600000D03*
%TD*%
D14*
%TO.P,C2,1*%
%TO.N,Row_1*%
X75005302Y-92050000D03*
D15*
%TO.P,C2,2*%
%TO.N,GND*%
X75005302Y-88250000D03*
%TD*%
D14*
%TO.P,D4,1,K*%
%TO.N,Row_3*%
X16550000Y-132280000D03*
D16*
%TO.P,D4,2,A*%
%TO.N,Net-(Col0_Row3-Pad1)*%
X16550000Y-124660000D03*
%TD*%
D10*
%TO.P,Col1_Row3,1,1*%
%TO.N,Net-(Col1_Row3-Pad1)*%
X46040000Y-125070000D03*
%TO.P,Col1_Row3,2,2*%
%TO.N,Col_1*%
X39690000Y-127610000D03*
%TD*%
D14*
%TO.P,D8,1,K*%
%TO.N,Row_3*%
X35550000Y-132280000D03*
D16*
%TO.P,D8,2,A*%
%TO.N,Net-(Col1_Row3-Pad1)*%
X35550000Y-124660000D03*
%TD*%
D10*
%TO.P,Col0_Row0,1,1*%
%TO.N,Net-(Col0_Row0-Pad1)*%
X26990000Y-67920000D03*
%TO.P,Col0_Row0,2,2*%
%TO.N,Col_0*%
X20640000Y-70460000D03*
%TD*%
D19*
%TO.P,USER_BTN1,1,1*%
%TO.N,GND*%
X21000000Y-40300000D03*
D20*
%TO.P,USER_BTN1,2,2*%
%TO.N,Net-(MCU1-Pad4)*%
X23540000Y-40300000D03*
%TD*%
D10*
%TO.P,Col2_Row0,1,1*%
%TO.N,Net-(Col2_Row0-Pad1)*%
X65090000Y-67920000D03*
%TO.P,Col2_Row0,2,2*%
%TO.N,Col_2*%
X58740000Y-70460000D03*
%TD*%
D21*
%TO.P,Memory1,1,NC*%
%TO.N,unconnected-(Memory1-Pad1)*%
X28300000Y-53662180D03*
D22*
%TO.P,Memory1,2,NC*%
%TO.N,unconnected-(Memory1-Pad2)*%
X28300000Y-51122180D03*
%TO.P,Memory1,3,NC*%
%TO.N,unconnected-(Memory1-Pad3)*%
X28300000Y-48582180D03*
%TO.P,Memory1,4,VSS*%
%TO.N,GND*%
X28300000Y-46042180D03*
%TO.P,Memory1,5,SDA*%
%TO.N,SDA*%
X20680000Y-46042180D03*
%TO.P,Memory1,6,SCL*%
%TO.N,SCL*%
X20680000Y-48582180D03*
%TO.P,Memory1,7,WP*%
%TO.N,GND*%
X20680000Y-51122180D03*
%TO.P,Memory1,8,VCC*%
%TO.N,VCC*%
X20680000Y-53662180D03*
%TD*%
D14*
%TO.P,C4,1*%
%TO.N,Row_3*%
X75005302Y-130150000D03*
D15*
%TO.P,C4,2*%
%TO.N,GND*%
X75005302Y-126350000D03*
%TD*%
D17*
%TO.P,R1,1*%
%TO.N,VCC*%
X67140000Y-42500000D03*
D18*
%TO.P,R1,2*%
%TO.N,SDA*%
X74760000Y-42500000D03*
%TD*%
D10*
%TO.P,Col1_Row0,1,1*%
%TO.N,Net-(Col1_Row0-Pad1)*%
X46040000Y-67920000D03*
%TO.P,Col1_Row0,2,2*%
%TO.N,Col_1*%
X39690000Y-70460000D03*
%TD*%
D14*
%TO.P,C1,1*%
%TO.N,Row_0*%
X75005302Y-73000000D03*
D15*
%TO.P,C1,2*%
%TO.N,GND*%
X75005302Y-69200000D03*
%TD*%
D14*
%TO.P,D5,1,K*%
%TO.N,Row_0*%
X35550000Y-75080000D03*
D16*
%TO.P,D5,2,A*%
%TO.N,Net-(Col1_Row0-Pad1)*%
X35550000Y-67460000D03*
%TD*%
D14*
%TO.P,D7,1,K*%
%TO.N,Row_2*%
X35550000Y-113180000D03*
D16*
%TO.P,D7,2,A*%
%TO.N,Net-(Col1_Row2-Pad1)*%
X35550000Y-105560000D03*
%TD*%
D10*
%TO.P,Col2_Row2,1,1*%
%TO.N,Net-(Col2_Row2-Pad1)*%
X65089960Y-106020000D03*
%TO.P,Col2_Row2,2,2*%
%TO.N,Col_2*%
X58739960Y-108560000D03*
%TD*%
%TO.P,Col1_Row1,1,1*%
%TO.N,Net-(Col1_Row1-Pad1)*%
X46040032Y-86970000D03*
%TO.P,Col1_Row1,2,2*%
%TO.N,Col_1*%
X39690032Y-89510000D03*
%TD*%
%TO.P,Col2_Row3,1,1*%
%TO.N,Net-(Col2_Row3-Pad1)*%
X65090000Y-125070000D03*
%TO.P,Col2_Row3,2,2*%
%TO.N,Col_2*%
X58740000Y-127610000D03*
%TD*%
D14*
%TO.P,D11,1,K*%
%TO.N,Row_2*%
X54650000Y-113180000D03*
D16*
%TO.P,D11,2,A*%
%TO.N,Net-(Col2_Row2-Pad1)*%
X54650000Y-105560000D03*
%TD*%
D14*
%TO.P,D3,1,K*%
%TO.N,Row_2*%
X16550000Y-113180000D03*
D16*
%TO.P,D3,2,A*%
%TO.N,Net-(Col0_Row2-Pad1)*%
X16550000Y-105560000D03*
%TD*%
D14*
%TO.P,D10,1,K*%
%TO.N,Row_1*%
X54650000Y-94180000D03*
D16*
%TO.P,D10,2,A*%
%TO.N,Net-(Col2_Row1-Pad1)*%
X54650000Y-86560000D03*
%TD*%
D19*
%TO.P,OLED_Header1,1,Pin_1*%
%TO.N,GND*%
X64600000Y-38422180D03*
D20*
%TO.P,OLED_Header1,2,Pin_2*%
%TO.N,VCC*%
X67140000Y-38422180D03*
%TO.P,OLED_Header1,3,Pin_3*%
%TO.N,SCL*%
X69680000Y-38422180D03*
%TO.P,OLED_Header1,4,Pin_4*%
%TO.N,SDA*%
X72220000Y-38422180D03*
%TD*%
D23*
%TO.N,Col_0*%
X28990000Y-60600000D03*
%TO.N,Col_1*%
X46040000Y-60600000D03*
%TO.N,Col_2*%
X65090000Y-60600000D03*
%TO.N,Net-(LED_Header1-Pad3)*%
X56300000Y-35882180D03*
%TD*%
D24*
%TO.N,Row_0*%
X71205791Y-62605791D02*
X71205791Y-69200489D01*
X41469521Y-80999521D02*
X48730479Y-80999521D01*
X35550000Y-75080000D02*
X41469521Y-80999521D01*
X54650000Y-75080000D02*
X60569521Y-80999521D01*
X59722180Y-51122180D02*
X51598790Y-51122180D01*
X29530000Y-81100000D02*
X35550000Y-75080000D01*
X16550000Y-74970000D02*
X22680000Y-81100000D01*
X48730479Y-80999521D02*
X54650000Y-75080000D01*
X60569521Y-80999521D02*
X67005781Y-80999521D01*
X22680000Y-81100000D02*
X29530000Y-81100000D01*
X71205791Y-69200489D02*
X75005302Y-73000000D01*
X71205791Y-62605791D02*
X59722180Y-51122180D01*
X67005781Y-80999521D02*
X75005302Y-73000000D01*
%TO.N,GND*%
X22740000Y-60600000D02*
X22740000Y-53182180D01*
X28300000Y-46042180D02*
X25760000Y-46042180D01*
X20680000Y-51122180D02*
X22740000Y-53182180D01*
X51598790Y-38422180D02*
X64600000Y-38422180D01*
X25760000Y-46042180D02*
X20680000Y-51122180D01*
%TO.N,Row_1*%
X76804813Y-65004813D02*
X76804813Y-90250489D01*
X51598790Y-48582180D02*
X60382180Y-48582180D01*
X41419521Y-100049521D02*
X48780479Y-100049521D01*
X16550000Y-94180000D02*
X22419521Y-100049521D01*
X67005781Y-100049521D02*
X75005302Y-92050000D01*
X60382180Y-48582180D02*
X76804813Y-65004813D01*
X54650000Y-94180000D02*
X60519521Y-100049521D01*
X35550000Y-94180000D02*
X41419521Y-100049521D01*
X60519521Y-100049521D02*
X67005781Y-100049521D01*
X29680479Y-100049521D02*
X35550000Y-94180000D01*
X76804813Y-90250489D02*
X75005302Y-92050000D01*
X22419521Y-100049521D02*
X29680479Y-100049521D01*
X48780479Y-100049521D02*
X54650000Y-94180000D01*
%TO.N,Row_2*%
X78304324Y-63204324D02*
X61142180Y-46042180D01*
X29630479Y-119099521D02*
X35550000Y-113180000D01*
X78304324Y-107800978D02*
X75005302Y-111100000D01*
X61142180Y-46042180D02*
X51598790Y-46042180D01*
X67005781Y-119099521D02*
X75005302Y-111100000D01*
X41469521Y-119099521D02*
X48730479Y-119099521D01*
X16550000Y-113180000D02*
X22469521Y-119099521D01*
X54650000Y-113180000D02*
X60569521Y-119099521D01*
X22469521Y-119099521D02*
X29630479Y-119099521D01*
X78304324Y-63204324D02*
X78304324Y-107800978D01*
X60569521Y-119099521D02*
X67005781Y-119099521D01*
X48730479Y-119099521D02*
X54650000Y-113180000D01*
X35550000Y-113180000D02*
X41469521Y-119099521D01*
%TO.N,Row_3*%
X54650000Y-132280000D02*
X60519521Y-138149521D01*
X35550000Y-132280000D02*
X41419521Y-138149521D01*
X62002180Y-43502180D02*
X79803834Y-61303834D01*
X79803834Y-61303834D02*
X79803834Y-125351468D01*
X48780479Y-138149521D02*
X54650000Y-132280000D01*
X16550000Y-132280000D02*
X22419521Y-138149521D01*
X51598790Y-43502180D02*
X62002180Y-43502180D01*
X29680479Y-138149521D02*
X35550000Y-132280000D01*
X67005781Y-138149521D02*
X75005302Y-130150000D01*
X79803834Y-125351468D02*
X75005302Y-130150000D01*
X22419521Y-138149521D02*
X29680479Y-138149521D01*
X41419521Y-138149521D02*
X48780479Y-138149521D01*
X60519521Y-138149521D02*
X67005781Y-138149521D01*
%TO.N,Col_0*%
X30000000Y-60600000D02*
X28990000Y-60600000D01*
X36662180Y-40962180D02*
X38400000Y-42700000D01*
X38400000Y-52200000D02*
X30000000Y-60600000D01*
X35434230Y-40962180D02*
X36662180Y-40962180D01*
X38400000Y-42700000D02*
X38400000Y-52200000D01*
%TO.N,Col_1*%
X36515279Y-38422180D02*
X35434230Y-38422180D01*
X46040000Y-60600000D02*
X39899510Y-54459510D01*
X39899510Y-41806411D02*
X36515279Y-38422180D01*
X39899510Y-54459510D02*
X39899510Y-41806411D01*
%TO.N,Col_2*%
X36095907Y-35882180D02*
X46900000Y-46686273D01*
X35434230Y-35882180D02*
X36095907Y-35882180D01*
X55100000Y-60600000D02*
X65090000Y-60600000D01*
X46900000Y-46686273D02*
X46900000Y-52400000D01*
X46900000Y-52400000D02*
X55100000Y-60600000D01*
%TO.N,VCC*%
X67140000Y-45700000D02*
X67140000Y-42500000D01*
X67140000Y-38422180D02*
X67140000Y-39424360D01*
X65602180Y-40962180D02*
X67140000Y-42500000D01*
X67140000Y-39424360D02*
X65602180Y-40962180D01*
X51598790Y-40962180D02*
X65602180Y-40962180D01*
%TO.N,SCL*%
X33313193Y-48582180D02*
X29024382Y-44293369D01*
X69680000Y-40620000D02*
X74760000Y-45700000D01*
X69680000Y-38422180D02*
X69680000Y-40620000D01*
X24968811Y-44293369D02*
X20680000Y-48582180D01*
X29024382Y-44293369D02*
X24968811Y-44293369D01*
X35434230Y-48582180D02*
X33313193Y-48582180D01*
%TO.N,SDA*%
X74760000Y-42500000D02*
X74760000Y-40962180D01*
X23928322Y-42793858D02*
X29811768Y-42793858D01*
X33060090Y-46042180D02*
X35434230Y-46042180D01*
X74760000Y-40962180D02*
X72220000Y-38422180D01*
X29811768Y-42793858D02*
X33060090Y-46042180D01*
X20680000Y-46042180D02*
X23928322Y-42793858D01*
%TO.N,Net-(MCU1-Pad4)*%
X23540000Y-40300000D02*
X31570373Y-40300000D01*
X31570373Y-40300000D02*
X34772553Y-43502180D01*
X34772553Y-43502180D02*
X35434230Y-43502180D01*
%TO.N,Net-(LED_Header1-Pad3)*%
X56300000Y-35882180D02*
X51598790Y-35882180D01*
%TO.N,Net-(LED_Header1-Pad2)*%
X24439022Y-62600000D02*
X21040978Y-62600000D01*
X25000000Y-59100000D02*
X25000000Y-62039022D01*
X21040978Y-62600000D02*
X20200000Y-61759022D01*
X30256410Y-56300000D02*
X27800000Y-56300000D01*
X27800000Y-56300000D02*
X25000000Y-59100000D01*
X35434230Y-51122180D02*
X30256410Y-56300000D01*
X20200000Y-61759022D02*
X20200000Y-60600000D01*
X25000000Y-62039022D02*
X24439022Y-62600000D01*
%TD*%
M02*
