M48
; DRILL file {KiCad (6.0.5)} date Sat Aug 13 18:52:00 2022
; FORMAT={-:-/ absolute / metric / decimal}
; #@! TF.CreationDate,2022-08-13T18:52:00-04:00
; #@! TF.GenerationSoftware,Kicad,Pcbnew,(6.0.5)
; #@! TF.FileFunction,MixedPlating,1,2
FMAT,2
METRIC
; #@! TA.AperFunction,Plated,PTH,ComponentDrill
T1C0.700
; #@! TA.AperFunction,Plated,PTH,ComponentDrill
T2C0.800
; #@! TA.AperFunction,Plated,PTH,ViaDrill
T3C0.900
; #@! TA.AperFunction,Plated,PTH,ComponentDrill
T4C0.991
; #@! TA.AperFunction,Plated,PTH,ComponentDrill
T5C1.000
; #@! TA.AperFunction,Plated,PTH,ComponentDrill
T6C1.500
; #@! TA.AperFunction,NonPlated,NPTH,ComponentDrill
T7C4.000
%
G90
G05
T1
X67.14Y-42.5
X67.14Y-45.7
X74.76Y-42.5
X74.76Y-45.7
T2
X16.55Y-67.46
X16.55Y-75.08
X16.55Y-86.56
X16.55Y-94.18
X16.55Y-105.56
X16.55Y-113.18
X16.55Y-124.66
X16.55Y-132.28
X35.55Y-67.46
X35.55Y-75.08
X35.55Y-86.56
X35.55Y-94.18
X35.55Y-105.56
X35.55Y-113.18
X35.55Y-124.66
X35.55Y-132.28
X54.65Y-67.46
X54.65Y-75.08
X54.65Y-86.56
X54.65Y-94.18
X54.65Y-105.56
X54.65Y-113.18
X54.65Y-124.66
X54.65Y-132.28
X75.005Y-69.2
X75.005Y-73.0
X75.005Y-88.25
X75.005Y-92.05
X75.005Y-107.3
X75.005Y-111.1
X75.005Y-126.35
X75.005Y-130.15
T3
X28.99Y-60.6
X46.04Y-60.6
X56.3Y-35.882
X65.09Y-60.6
T4
X20.68Y-46.042
X20.68Y-48.582
X20.68Y-51.122
X20.68Y-53.662
X28.3Y-46.042
X28.3Y-48.582
X28.3Y-51.122
X28.3Y-53.662
T5
X17.66Y-60.6
X20.2Y-60.6
X21.0Y-40.3
X22.74Y-60.6
X23.54Y-40.3
X64.6Y-38.422
X67.14Y-38.422
X69.68Y-38.422
X72.22Y-38.422
T6
X20.64Y-70.46
X20.64Y-89.51
X20.64Y-127.61
X20.64Y-108.56
X26.99Y-67.92
X26.99Y-86.97
X26.99Y-125.07
X26.99Y-106.02
X39.69Y-70.46
X39.69Y-108.56
X39.69Y-127.61
X39.69Y-89.51
X46.04Y-67.92
X46.04Y-106.02
X46.04Y-125.07
X46.04Y-86.97
X58.74Y-108.56
X58.74Y-70.46
X58.74Y-89.51
X58.74Y-127.61
X65.09Y-106.02
X65.09Y-67.92
X65.09Y-86.97
X65.09Y-125.07
T7
X24.45Y-73.0
X24.45Y-78.0
X24.45Y-92.05
X24.45Y-97.05
X24.45Y-130.15
X24.45Y-135.15
X24.45Y-111.1
X24.45Y-116.1
X43.5Y-73.0
X43.5Y-78.0
X43.5Y-111.1
X43.5Y-116.1
X43.5Y-130.15
X43.5Y-135.15
X43.5Y-92.05
X43.5Y-97.05
X62.55Y-111.1
X62.55Y-116.1
X62.55Y-73.0
X62.55Y-78.0
X62.55Y-92.05
X62.55Y-97.05
X62.55Y-130.15
X62.55Y-135.15
T0
M30
